<?xml version="1.0" standalone="no"?>
<!DOCTYPE svg PUBLIC "-//W3C//DTD SVG 20010904//EN"
 "http://www.w3.org/TR/2001/REC-SVG-20010904/DTD/svg10.dtd">
<svg version="1.0" xmlns="http://www.w3.org/2000/svg"
 width="494.000000pt" height="505.000000pt" viewBox="0 0 494.000000 505.000000"
 preserveAspectRatio="xMidYMid meet">
<metadata>
Created by potrace 1.16, written by Peter Selinger 2001-2019
</metadata>
<g transform="translate(0.000000,505.000000) scale(0.100000,-0.100000)"
fill="#fff" stroke="none">
<path d="M2193 4804 c-772 -93 -1450 -577 -1788 -1275 -163 -337 -229 -627
-229 -1004 0 -377 66 -667 229 -1004 233 -480 645 -880 1127 -1092 1137 -500
2460 -22 2999 1086 167 341 233 630 233 1010 0 381 -67 672 -234 1011 -344
702 -1018 1178 -1796 1269 -155 18 -388 18 -541 -1z m509 -189 c159 -18 290
-47 424 -91 766 -254 1315 -911 1430 -1710 23 -158 23 -420 0 -578 -115 -799
-664 -1456 -1430 -1710 -568 -188 -1211 -119 -1723 186 -555 331 -918 870
-1019 1514 -23 148 -23 450 0 598 101 644 464 1183 1019 1514 384 229 854 329
1299 277z"/>
<path d="M2518 4065 l-287 -313 -63 26 c-294 119 -618 -103 -618 -423 0 -333
346 -554 646 -411 220 104 320 355 230 577 l-26 64 49 50 c142 148 622 677
618 681 -6 6 -236 64 -251 63 -6 0 -140 -141 -298 -314z m-399 -528 c22 -15
53 -46 68 -69 24 -36 28 -52 28 -113 0 -61 -4 -77 -28 -113 -75 -113 -225
-136 -324 -49 -117 103 -89 291 52 359 59 28 149 21 204 -15z"/>
<path d="M3123 3646 c-83 -20 -159 -65 -221 -130 -129 -135 -165 -321 -93
-488 l18 -44 -191 -197 -191 -197 -385 45 c-212 25 -455 54 -540 64 l-155 18
-265 -260 c-146 -143 -307 -302 -358 -352 l-92 -90 31 -95 c17 -52 38 -108 46
-124 l15 -29 136 134 c76 74 235 231 354 349 l217 214 193 -22 c106 -12 351
-40 543 -63 l350 -41 230 237 231 236 59 -28 c55 -26 70 -28 175 -28 111 0
117 1 190 36 390 186 334 745 -85 854 -70 18 -140 18 -212 1z m168 -237 c127
-39 189 -187 127 -306 -67 -132 -256 -154 -352 -42 -140 164 18 409 225 348z"/>
<path d="M3716 2495 c-409 -420 -564 -574 -575 -569 -122 51 -190 61 -289 40
-244 -51 -405 -280 -364 -517 25 -147 116 -271 246 -334 256 -125 545 -4 636
266 31 92 26 229 -13 313 l-27 59 97 101 c54 56 265 272 468 481 204 210 387
399 408 421 l38 40 -21 109 c-12 60 -27 122 -33 137 l-12 29 -559 -576z m-671
-788 c21 -12 53 -41 69 -65 25 -35 31 -55 34 -110 5 -85 -23 -143 -90 -188
-90 -61 -189 -52 -268 25 -90 87 -94 204 -8 297 69 75 172 91 263 41z"/>
<path d="M1721 2144 c-253 -68 -402 -337 -317 -574 12 -36 26 -72 29 -80 5
-10 -20 -45 -74 -105 -44 -49 -107 -120 -140 -157 l-60 -67 92 -77 93 -76 35
40 c20 23 80 90 135 150 l98 110 55 -25 c75 -35 204 -43 289 -18 401 115 455
658 84 845 -100 50 -214 62 -319 34z m179 -234 c19 -5 52 -24 74 -42 153 -126
60 -378 -139 -378 -191 0 -287 229 -152 364 60 59 135 79 217 56z"/>
</g>
</svg>
